<svg width="615" height="866" viewBox="0 0 615 866" fill="none" xmlns="http://www.w3.org/2000/svg">
<path fill-rule="evenodd" clip-rule="evenodd" d="M15.7775 195.189C63.9803 419.254 111.659 482.4 234.583 483.951C307.736 484.91 332.071 515.092 374.335 656.626C418.811 805.999 445.412 850.752 497.334 863.615C523.027 870.017 573.237 854.859 597.922 833.522C609.818 823.341 614.982 812.284 613.97 798.93C612.164 775.942 583.763 623.371 559.939 509.018C550.614 464.361 549.897 463.203 534.313 466.186C495.745 473.621 478.067 456.677 463.301 397.37C459.851 383.611 445.626 327.59 444.13 320.904C402.187 140.485 376.467 111.494 255.743 108.102C200.682 106.589 179.499 83.5429 163.672 7.37986C161.726 -2.04452 162.462 -2.36583 142.911 11.7413C135.728 16.9302 102.695 33.9841 69.4829 49.9426C-12.3418 89.1654 -9.01009 79.7865 15.7775 195.189ZM131.776 58.5741C161.252 40.7238 158.413 41.0849 161.92 55.9923C171.97 99.4524 183.533 118.474 208.778 134.17C224.792 144.208 250.403 147.71 282.726 144.762C363.886 137.53 395.441 182.762 441.957 371.752C459.579 443.61 464.856 461.267 472.633 474.899C493.555 511.561 516.675 499.128 540.885 490.913C540.885 490.913 553.758 556.331 555.962 566.523C560.473 588.331 561.812 586.863 537.771 586.492C503.174 586.03 484.71 574.713 464.743 541.45C444.226 507.253 435.044 478.677 401.656 343.839C369.1 212.453 334.299 182.727 232.363 199.023C163.91 209.81 136.37 183.374 114.266 85.8804L110.928 71.1927L131.776 58.5741ZM100.981 76.4131C104.149 87.6529 110.942 110.519 113.695 121.646C139.237 223.217 166.664 247.355 243.345 235.326C313.732 224.282 327.034 229.049 356.802 276.234C371.434 299.496 381.492 322.993 388.515 350.456C399.065 391.35 383.532 327.383 425.787 488.88C455.537 602.411 509.221 655.602 559.485 620.757L565.729 616.268C573.608 648.935 584.818 716.252 599.498 787.045C599.375 787.099 545.292 817.153 521.312 821.158C463.435 830.56 416.612 763.81 376.385 614.637C340.809 482.515 302.496 434.654 234.179 437.457C154.199 440.651 113.096 414.262 73.7601 334.56C58.5708 303.909 30.4429 209.044 19.6717 152.396L13.8884 122.047L100.981 76.4131Z" fill="white"/>
</svg>
