<?xml version="1.0" encoding="UTF-8"?>
<svg id="Layer_2" data-name="Layer 2" xmlns="http://www.w3.org/2000/svg" viewBox="0 0 228.59 43.04">
  <defs>
    <style>
      .cls-1 {
        fill: #fff;
      }

      .cls-1, .cls-2 {
        stroke-width: 0px;
      }

      .cls-2 {
        fill: #009444;
      }
    </style>
  </defs>
  <g id="Layer_1-2" data-name="Layer 1">
    <g>
      <path class="cls-1" d="M52.49,20.63V3.05h4.87l8.94,10.7h-2.26V3.05h5.78v17.58h-4.87l-8.94-10.7h2.26v10.7h-5.78Z"/>
      <path class="cls-1" d="M78.51,16.16h8.79v4.47h-14.62V3.05h14.29v4.47h-8.46v8.64ZM78.11,9.58h7.84v4.27h-7.84v-4.27Z"/>
      <path class="cls-1" d="M87.95,20.63l7.84-10.95-.03,4.14-7.58-10.77h6.66l4.42,6.53-2.84.03,4.32-6.56h6.38l-7.58,10.55v-4.12l7.96,11.15h-6.78l-4.42-6.83,2.74-.02-4.32,6.86h-6.76Z"/>
      <path class="cls-1" d="M112.54,20.63V7.65h-5.15V3.05h16.22v4.6h-5.15v12.98h-5.93Z"/>
      <path class="cls-1" d="M61.61,43.04c-1.42,0-2.73-.22-3.93-.67-1.2-.44-2.24-1.08-3.11-1.9s-1.56-1.79-2.05-2.91c-.49-1.12-.73-2.36-.73-3.72s.24-2.59.73-3.72c.49-1.12,1.17-2.09,2.06-2.91.89-.82,1.94-1.45,3.15-1.9,1.21-.44,2.55-.67,4.01-.67,1.74,0,3.29.29,4.66.88s2.49,1.42,3.38,2.51l-3.79,3.34c-.55-.64-1.15-1.12-1.8-1.44-.64-.33-1.36-.49-2.15-.49-.65,0-1.24.1-1.77.3-.53.2-.98.49-1.34.88-.37.39-.65.85-.85,1.38-.2.54-.3,1.15-.3,1.83s.1,1.25.3,1.8c.2.54.49,1.01.85,1.39.37.39.81.68,1.32.89.51.21,1.08.31,1.72.31.67,0,1.32-.11,1.96-.34s1.31-.62,2.03-1.17l3.32,4.07c-1.07.72-2.29,1.27-3.67,1.66-1.37.38-2.7.58-3.99.58ZM64.12,40.05v-6.68h5.15v7.43l-5.15-.75Z"/>
      <path class="cls-1" d="M77.63,38.16h8.79v4.47h-14.62v-17.58h14.29v4.47h-8.46v8.64ZM77.23,31.58h7.84v4.27h-7.84v-4.27Z"/>
      <path class="cls-1" d="M88.71,42.63v-17.58h4.87l8.94,10.7h-2.26v-10.7h5.78v17.58h-4.87l-8.94-10.7h2.26v10.7h-5.78Z"/>
      <path class="cls-1" d="M114.72,38.16h8.79v4.47h-14.62v-17.58h14.29v4.47h-8.46v8.64ZM114.32,31.58h7.84v4.27h-7.84v-4.27Z"/>
      <path class="cls-1" d="M125.8,42.63v-17.58h8.46c1.64,0,3.06.27,4.26.8,1.2.54,2.12,1.3,2.77,2.3.65,1,.98,2.17.98,3.53s-.33,2.52-.98,3.5c-.65.98-1.58,1.73-2.77,2.25-1.2.52-2.62.78-4.26.78h-5.17l2.64-2.44v6.86h-5.93ZM131.73,36.43l-2.64-2.69h4.8c.82,0,1.43-.18,1.82-.55.39-.37.59-.87.59-1.51s-.2-1.14-.59-1.51-1-.55-1.82-.55h-4.8l2.64-2.69v9.49ZM136.32,42.63l-4.32-6.4h6.28l4.37,6.4h-6.33Z"/>
      <path class="cls-1" d="M142.6,42.63l7.69-17.58h5.83l7.68,17.58h-6.13l-5.68-14.77h2.31l-5.68,14.77h-6.03ZM147.17,39.57l1.51-4.27h8.09l1.51,4.27h-11.1Z"/>
      <path class="cls-1" d="M168.57,42.63v-12.98h-5.15v-4.6h16.22v4.6h-5.15v12.98h-5.93Z"/>
      <path class="cls-1" d="M181.18,42.63v-17.58h5.93v17.58h-5.93Z"/>
      <path class="cls-1" d="M199.18,43.04c-1.42,0-2.74-.23-3.96-.68-1.21-.45-2.26-1.09-3.15-1.92-.89-.83-1.58-1.8-2.07-2.93-.49-1.12-.74-2.34-.74-3.67s.25-2.57.74-3.68c.49-1.11,1.18-2.08,2.07-2.91.89-.83,1.94-1.47,3.15-1.92,1.21-.45,2.53-.68,3.96-.68s2.76.23,3.97.68c1.21.45,2.25,1.09,3.14,1.92.89.83,1.58,1.8,2.07,2.91.49,1.11.74,2.34.74,3.68s-.25,2.55-.74,3.67c-.49,1.12-1.19,2.1-2.07,2.93-.89.83-1.93,1.47-3.14,1.92-1.21.45-2.53.68-3.97.68ZM199.18,38.24c.55,0,1.07-.1,1.54-.3.48-.2.9-.49,1.25-.87.36-.38.64-.84.84-1.38s.3-1.16.3-1.85-.1-1.3-.3-1.85-.48-1-.84-1.38c-.36-.38-.78-.67-1.25-.87-.48-.2-.99-.3-1.54-.3s-1.07.1-1.54.3c-.48.2-.9.49-1.25.87-.36.38-.64.84-.84,1.38s-.3,1.16-.3,1.85.1,1.3.3,1.85.48,1,.84,1.38c.36.38.78.67,1.25.87.48.2.99.3,1.54.3Z"/>
      <path class="cls-1" d="M211.26,42.63v-17.58h4.87l8.94,10.7h-2.26v-10.7h5.78v17.58h-4.87l-8.94-10.7h2.26v10.7h-5.78Z"/>
    </g>
    <path class="cls-2" d="M0,0v.45c3.62,2.82,8.57,6.69,12.08,9.43h18.48V0H0Z"/>
    <path class="cls-1" d="M36.01,34.48v-8.06c-1.1.68-2.38,1.08-3.77,1.08s-2.67-.4-3.77-1.08v15.59h18.57v-7.53h-11.04Z"/>
    <path class="cls-1" d="M32.32,14.34c-3.34,0-6.04,2.71-6.04,6.04s2.71,6.04,6.04,6.04,6.04-2.71,6.04-6.04-2.71-6.04-6.04-6.04ZM32.32,23.94c-1.97,0-3.56-1.6-3.56-3.56s1.6-3.56,3.56-3.56,3.56,1.6,3.56,3.56-1.6,3.56-3.56,3.56Z"/>
    <path class="cls-2" d="M46.74,12.01v-6.83c0-1.18-.95-2.13-2.13-2.13H12.35c-1.18,0-2.13.95-2.13,2.13v6.83c0,.44.35.79.79.79h34.93c.44,0,.79-.35.79-.79Z"/>
    <path class="cls-1" d="M35.23,13.81c2.47,1.14,4.19,3.63,4.19,6.52,0,.56-.07,1.1-.19,1.62h5.38c1.18,0,2.13-.95,2.13-2.13v-6.01h-11.51Z"/>
    <path class="cls-1" d="M29.26,13.81H10.22v6.01c0,1.18.95,2.13,2.13,2.13h12.91c-.12-.52-.19-1.06-.19-1.62,0-2.89,1.72-5.38,4.19-6.52Z"/>
  </g>
</svg>