<?xml version="1.0" encoding="UTF-8"?>
<svg id="Layer_2" data-name="Layer 2" xmlns="http://www.w3.org/2000/svg" viewBox="0 0 512 512">
  <defs>
    <style>
      .cls-1 {
        fill: #383838;
      }

      .cls-1, .cls-2, .cls-3, .cls-4, .cls-5, .cls-6, .cls-7, .cls-8, .cls-9, .cls-10, .cls-11, .cls-12, .cls-13 {
        stroke-width: 0px;
      }

      .cls-2 {
        fill: #000;
      }

      .cls-3 {
        fill: #feed58;
      }

      .cls-4 {
        fill: #cc2c28;
      }

      .cls-5 {
        fill: #e5dbc7;
      }

      .cls-6 {
        fill: #2d2d2d;
      }

      .cls-7 {
        fill: #434343;
      }

      .cls-8 {
        fill: #111132;
      }

      .cls-9 {
        fill: #545554;
      }

      .cls-10 {
        fill: #e04326;
      }

      .cls-11 {
        fill: #546f7a;
      }

      .cls-12 {
        fill: #fdd837;
      }

      .cls-13 {
        fill: #455b64;
      }
    </style>
  </defs>
  <g id="Layer_1-2" data-name="Layer 1">
    <g>
      <path class="cls-7" d="M491.21,504.72H20.71c-7.44,0-13.47-6.03-13.47-13.47V20.75c0-7.44,6.03-13.47,13.47-13.47h470.51c7.44,0,13.47,6.03,13.47,13.47v470.51c0,7.44-6.03,13.47-13.47,13.47Z"/>
      <path class="cls-6" d="M59.76,491.25V20.75c0-7.44,6.03-13.47,13.47-13.47H20.71c-7.44,0-13.47,6.03-13.47,13.47v470.51c0,7.44,6.03,13.47,13.47,13.47h52.52c-7.44,0-13.47-6.03-13.47-13.47Z"/>
      <g>
        <path class="cls-10" d="M495.56,137.71h-216.87c-5.04,0-9.12,4.08-9.12,9.12v87.89c0,5.04,4.08,9.12,9.12,9.12h216.87c5.04,0,9.12-4.08,9.12-9.12v-87.89c0-5.04-4.09-9.12-9.12-9.12Z"/>
        <path class="cls-1" d="M364.4,268.14h-216.87c-5.04,0-9.12,4.08-9.12,9.12v87.89c0,5.04,4.08,9.12,9.12,9.12h216.87c5.04,0,9.12-4.08,9.12-9.12v-87.89c0-5.04-4.08-9.12-9.12-9.12Z"/>
        <path class="cls-10" d="M364.4,7.28h-216.87c-5.04,0-9.12,4.08-9.12,9.12v87.89c0,5.04,4.08,9.12,9.12,9.12h216.87c5.04,0,9.12-4.08,9.12-9.12V16.4c0-5.04-4.08-9.12-9.12-9.12Z"/>
        <path class="cls-10" d="M504.68,104.29V16.4c0-5.04-4.08-9.12-9.12-9.12h-86.78c-5.04,0-9.12,4.08-9.12,9.12v87.89c0,5.04,4.08,9.12,9.12,9.12h86.78c5.04,0,9.12-4.08,9.12-9.12Z"/>
        <path class="cls-10" d="M504.68,365.16v-87.89c0-5.04-4.08-9.12-9.12-9.12h-86.78c-5.04,0-9.12,4.08-9.12,9.12v87.89c0,5.04,4.08,9.12,9.12,9.12h86.78c5.04,0,9.12-4.08,9.12-9.12Z"/>
        <path class="cls-10" d="M112.27,104.29V16.4c0-5.04-4.08-9.12-9.12-9.12H16.37c-5.04,0-9.12,4.08-9.12,9.12v87.89c0,5.04,4.08,9.12,9.12,9.12h86.78c5.04,0,9.12-4.08,9.12-9.12Z"/>
        <path class="cls-10" d="M112.27,365.16v-87.89c0-5.04-4.08-9.12-9.12-9.12H16.37c-5.04,0-9.12,4.08-9.12,9.12v87.89c0,5.04,4.08,9.12,9.12,9.12h86.78c5.04,0,9.12-4.08,9.12-9.12Z"/>
        <path class="cls-10" d="M233.24,137.71H16.37c-5.04,0-9.12,4.08-9.12,9.12v87.89c0,5.04,4.08,9.12,9.12,9.12h216.87c5.04,0,9.12-4.08,9.12-9.12v-87.89c0-5.04-4.09-9.12-9.12-9.12Z"/>
        <path class="cls-10" d="M495.56,398.58h-216.87c-5.04,0-9.12,4.08-9.12,9.12v87.89c0,5.04,4.08,9.12,9.12,9.12h216.87c5.04,0,9.12-4.08,9.12-9.12v-87.89c0-5.04-4.09-9.12-9.12-9.12Z"/>
        <path class="cls-10" d="M233.24,398.58H16.37c-5.04,0-9.12,4.08-9.12,9.12v87.89c0,5.04,4.08,9.12,9.12,9.12h216.87c5.04,0,9.12-4.08,9.12-9.12v-87.89c0-5.04-4.09-9.12-9.12-9.12Z"/>
      </g>
      <g>
        <path class="cls-4" d="M59.76,104.29V16.4c0-5.04,4.08-9.12,9.12-9.12H16.37c-5.04,0-9.12,4.08-9.12,9.12v87.89c0,5.04,4.08,9.12,9.12,9.12h52.51c-5.04,0-9.12-4.08-9.12-9.12Z"/>
        <path class="cls-4" d="M190.92,104.29V16.4c0-5.04,4.08-9.12,9.12-9.12h-52.51c-5.04,0-9.12,4.08-9.12,9.12v87.89c0,5.04,4.08,9.12,9.12,9.12h52.51c-5.04,0-9.12-4.08-9.12-9.12Z"/>
        <path class="cls-4" d="M452.17,104.29V16.4c0-5.04,4.08-9.12,9.12-9.12h-52.51c-5.04,0-9.12,4.08-9.12,9.12v87.89c0,5.04,4.08,9.12,9.12,9.12h52.52c-5.04,0-9.12-4.08-9.12-9.12Z"/>
        <path class="cls-9" d="M322.08,234.72v-87.89c0-5.04,4.08-9.12,9.12-9.12h-52.52c-5.04,0-9.12,4.08-9.12,9.12v87.89c0,5.04,4.08,9.12,9.12,9.12h52.52c-5.04,0-9.12-4.08-9.12-9.12Z"/>
        <path class="cls-4" d="M452.17,365.16v-87.89c0-5.04,4.08-9.12,9.12-9.12h-52.51c-5.04,0-9.12,4.08-9.12,9.12v87.89c0,5.04,4.08,9.12,9.12,9.12h52.52c-5.04,0-9.12-4.09-9.12-9.12Z"/>
        <path class="cls-4" d="M322.08,495.59v-87.89c0-5.04,4.08-9.12,9.12-9.12h-52.52c-5.04,0-9.12,4.08-9.12,9.12v87.89c0,5.04,4.08,9.12,9.12,9.12h52.52c-5.04,0-9.12-4.08-9.12-9.12Z"/>
        <path class="cls-9" d="M190.92,365.16v-87.89c0-5.04,4.08-9.12,9.12-9.12h-52.51c-5.04,0-9.12,4.08-9.12,9.12v87.89c0,5.04,4.08,9.12,9.12,9.12h52.51c-5.04,0-9.12-4.09-9.12-9.12Z"/>
        <path class="cls-4" d="M59.76,365.16v-87.89c0-5.04,4.08-9.12,9.12-9.12H16.37c-5.04,0-9.12,4.08-9.12,9.12v87.89c0,5.04,4.08,9.12,9.12,9.12h52.51c-5.04,0-9.12-4.08-9.12-9.12Z"/>
        <path class="cls-4" d="M59.76,234.72v-87.89c0-5.04,4.08-9.12,9.12-9.12H16.37c-5.04,0-9.12,4.08-9.12,9.12v87.89c0,5.04,4.08,9.12,9.12,9.12h52.51c-5.04,0-9.12-4.08-9.12-9.12Z"/>
        <path class="cls-4" d="M59.76,495.59v-87.89c0-5.04,4.08-9.12,9.12-9.12H16.37c-5.04,0-9.12,4.08-9.12,9.12v87.89c0,5.04,4.08,9.12,9.12,9.12h52.51c-5.04,0-9.12-4.08-9.12-9.12Z"/>
      </g>
      <path class="cls-2" d="M495.38,130.32h-216.68c-9.16,0-16.61,7.45-16.61,16.62v87.81c0,9.16,7.45,16.62,16.61,16.62h216.68c9.16,0,16.61-7.45,16.61-16.62v-87.81c0-9.16-7.45-16.62-16.61-16.62ZM497,234.75c0,.89-.73,1.62-1.61,1.62-227.95-.76-218.29,1.56-218.29-1.62v-87.81c0-.89.73-1.61,1.61-1.61,227.95.76,218.29-1.56,218.29,1.61v87.81Z"/>
      <path class="cls-2" d="M147.66,121.04h216.68c9.16,0,16.61-7.45,16.61-16.61V16.62c0-9.16-7.45-16.62-16.61-16.62h-216.68c-9.16,0-16.62,7.45-16.62,16.62v87.81c0,9.16,7.46,16.61,16.62,16.61ZM146.05,16.62c0-3.18-9.66-.86,218.29-1.61.89,0,1.61.73,1.61,1.61v87.81c0,.89-.73,1.61-1.61,1.61h-216.68c-.89,0-1.62-.72-1.62-1.61V16.62h0Z"/>
      <path class="cls-2" d="M495.38,0h-86.71c-9.16,0-16.61,7.45-16.61,16.62v87.81c0,9.16,7.45,16.61,16.61,16.61h86.71c9.16,0,16.61-7.45,16.61-16.61V16.62c0-9.16-7.45-16.62-16.61-16.62ZM497,104.43c0,.89-.73,1.61-1.61,1.61h-86.71c-.89,0-1.61-.72-1.61-1.61V16.62c0-.89.73-1.61,1.61-1.61h86.71c.89,0,1.61.73,1.61,1.61v87.81Z"/>
      <path class="cls-2" d="M495.38,260.64h-86.71c-9.16,0-16.61,7.45-16.61,16.62v87.81c0,9.16,7.45,16.61,16.61,16.61h86.71c9.16,0,16.61-7.45,16.61-16.61v-87.81c0-9.16-7.45-16.62-16.61-16.62ZM497,365.07c0,.89-.73,1.61-1.61,1.61h-86.71c-.89,0-1.61-.73-1.61-1.61v-87.81c0-.89.73-1.61,1.61-1.61h86.71c.89,0,1.61.73,1.61,1.61v87.81Z"/>
      <path class="cls-2" d="M16.62,381.68h86.71c9.16,0,16.62-7.45,16.62-16.61v-87.81c0-9.16-7.45-16.62-16.62-16.62H16.62c-9.16,0-16.62,7.45-16.62,16.62v87.81c0,9.16,7.45,16.62,16.62,16.62ZM15,277.25c0-.89.73-1.61,1.62-1.61h86.71c.89,0,1.61.73,1.61,1.61v87.81c0,.89-.72,1.61-1.61,1.61H16.62c-.89,0-1.61-.73-1.61-1.61,0,0,0-87.81,0-87.81Z"/>
      <path class="cls-2" d="M16.62,251.36h216.68c9.16,0,16.62-7.45,16.62-16.62v-87.81c0-9.16-7.45-16.62-16.62-16.62H16.62c-9.16,0-16.62,7.45-16.62,16.62v87.81c0,9.16,7.45,16.62,16.62,16.62ZM15,146.93c0-3.18-9.66-.86,218.29-1.61.89,0,1.62.73,1.62,1.61v87.81c0,.89-.73,1.62-1.62,1.62-227.95-.76-218.29,1.56-218.29-1.62,0,0,0-87.81,0-87.81Z"/>
      <path class="cls-2" d="M495.38,390.96h-216.68c-9.16,0-16.61,7.45-16.61,16.61v87.81c0,9.16,7.45,16.62,16.61,16.62h216.68c9.16,0,16.61-7.45,16.61-16.62v-87.81c0-9.16-7.45-16.61-16.61-16.61ZM497,495.38c0,.89-.73,1.61-1.61,1.61-227.95-.76-218.29,1.56-218.29-1.61v-87.81c0-3.18-9.66-.86,218.29-1.61.89,0,1.61.73,1.61,1.61v87.81Z"/>
      <path class="cls-2" d="M233.29,390.96H16.62c-9.16,0-16.62,7.45-16.62,16.62v87.81c0,9.16,7.45,16.62,16.62,16.62h25.85c4.14,0,7.5-3.36,7.5-7.5s-3.36-7.5-7.5-7.5h-25.85c-.89,0-1.61-.73-1.61-1.61v-87.81c0-.89.73-1.61,1.61-1.61,227.95.76,218.29-1.56,218.29,1.61v87.81c0,3.18,4.99.87-157.44,1.61-4.14,0-7.5,3.36-7.5,7.5s3.36,7.5,7.5,7.5h155.82c9.16,0,16.62-7.45,16.62-16.62v-87.81c0-9.16-7.45-16.62-16.61-16.62Z"/>
      <path class="cls-2" d="M300.79,275.64c4.14,0,7.5-3.36,7.5-7.5s-3.36-7.5-7.5-7.5h-153.13c-9.16,0-16.62,7.45-16.62,16.62v87.81c0,9.16,7.45,16.61,16.62,16.61h216.68c9.16,0,16.61-7.45,16.61-16.61v-87.81c0-9.16-7.45-16.62-16.61-16.62h-28.55c-4.14,0-7.5,3.36-7.5,7.5s3.36,7.5,7.5,7.5h28.55c.89,0,1.61.73,1.61,1.61v87.81c0,3.18,9.66.86-218.29,1.61-.89,0-1.62-.73-1.62-1.61v-87.81c0-3.18-4.73-.87,154.74-1.62Z"/>
      <path class="cls-2" d="M16.62,121.04h86.71c9.16,0,16.62-7.45,16.62-16.62V16.62c0-9.16-7.45-16.62-16.62-16.62H16.62C7.45,0,0,7.45,0,16.62v26.41c0,4.14,3.36,7.5,7.5,7.5s7.5-3.36,7.5-7.5v-26.41c0-.89.73-1.61,1.61-1.61h86.71c.89,0,1.61.73,1.61,1.61v87.81c0,.89-.72,1.61-1.61,1.61H16.62c-.89,0-1.61-.72-1.61-1.61v-26.4c0-4.14-3.36-7.5-7.5-7.5s-7.5,3.36-7.5,7.5v26.4c0,9.16,7.45,16.61,16.62,16.61Z"/>
      <circle class="cls-5" cx="265.83" cy="245.74" r="204.53"/>
      <g id="money_management" data-name="money management">
        <path class="cls-11" d="M323.22,188.35v-26.49h-15.27c-.78-2.47-1.78-4.86-2.99-7.16l10.82-10.82-18.73-18.73-10.82,10.82c-2.29-1.21-4.69-2.21-7.16-2.99v-15.27h-26.49v15.27c-2.47.78-4.86,1.78-7.16,2.99l-10.82-10.82-18.73,18.73,10.82,10.82c-1.21,2.29-2.21,4.69-2.99,7.16h-15.27v26.49h15.27c.78,2.47,1.78,4.86,2.99,7.16l-10.82,10.82,18.73,18.73,10.82-10.82c2.29,1.21,4.69,2.21,7.15,2.99v15.27h26.49v-15.27c2.47-.78,4.86-1.78,7.16-2.99l10.82,10.82,18.73-18.73-10.82-10.82c1.21-2.29,2.21-4.69,2.99-7.15h15.27ZM265.83,201.59c-14.63,0-26.49-11.86-26.49-26.49s11.86-26.49,26.49-26.49,26.49,11.86,26.49,26.49-11.86,26.49-26.49,26.49Z"/>
        <g>
          <path class="cls-13" d="M216.76,205.45l-.88.88,18.73,18.73,10.38-10.38c-10.06-.53-19.8-3.71-28.23-9.23h0Z"/>
          <path class="cls-13" d="M305.4,154.26l10.38-10.38-18.73-18.73-.88.88c5.52,8.43,8.7,18.17,9.23,28.23h0Z"/>
          <path class="cls-13" d="M323.22,188.35v-26.49h-15.27c-.67-2.08-1.49-4.1-2.47-6.05.02.55.08,1.08.08,1.64,0,31.7-25.7,57.39-57.39,57.39-.55,0-1.09-.07-1.64-.08,1.95.98,3.97,1.8,6.05,2.47v15.27h26.49v-15.27c2.47-.78,4.86-1.78,7.16-2.99l10.82,10.82,18.73-18.73-10.82-10.82c1.21-2.29,2.21-4.69,2.99-7.15h15.27Z"/>
        </g>
        <rect class="cls-4" x="151.04" y="250.16" width="150.11" height="123.62" rx="8.83" ry="8.83"/>
        <rect class="cls-10" x="151.04" y="250.16" width="150.11" height="70.64" rx="8.83" ry="8.83"/>
        <path class="cls-4" d="M292.32,250.16h-21.78c-1.65,56.54-82.81,54.68-119.5,50.92v10.89c0,4.88,3.95,8.83,8.83,8.83h132.45c4.88,0,8.83-3.95,8.83-8.83v-52.98c0-4.88-3.95-8.83-8.83-8.83Z"/>
        <circle class="cls-4" cx="226.1" cy="285.48" r="17.66"/>
        <path class="cls-8" d="M226.1,307.55c-12.19,0-22.07-9.88-22.07-22.07s9.88-22.07,22.07-22.07,22.07,9.88,22.07,22.07c-.01,12.19-9.89,22.06-22.07,22.07ZM226.1,272.23c-7.31,0-13.24,5.93-13.24,13.24s5.93,13.24,13.24,13.24,13.24-5.93,13.24-13.24c0-7.31-5.93-13.24-13.24-13.24Z"/>
        <path class="cls-8" d="M195.19,307.55h-17.66c-2.44,0-4.41-1.98-4.41-4.41,0-2.44-1.98-4.41-4.41-4.41-2.44,0-4.41-1.98-4.41-4.41v-17.66c0-2.44,1.98-4.41,4.41-4.41,2.44,0,4.41-1.98,4.41-4.41,0-2.44,1.98-4.41,4.41-4.41h17.66c2.44,0,4.41,1.98,4.41,4.41s-1.98,4.41-4.41,4.41h-14c-1.34,3.77-4.31,6.73-8.07,8.07v10.34c3.77,1.34,6.73,4.31,8.07,8.07h14c2.44,0,4.41,1.98,4.41,4.41s-1.98,4.41-4.41,4.41Z"/>
        <path class="cls-3" d="M327.64,267.82c-29.26,0-52.98,7.91-52.98,17.66v70.64c0,9.75,23.72,17.66,52.98,17.66s52.98-7.91,52.98-17.66v-70.64c0-9.75-23.72-17.66-52.98-17.66Z"/>
        <path class="cls-12" d="M327.64,267.82c-1.05,0-2.08.03-3.12.05,2.54,4.17,5.05,8.55,7.53,13.19,49.95,93.66-14.89,87.97-57.16,76.61,2.36,9.02,25.06,16.11,52.74,16.11,29.26,0,52.98-7.91,52.98-17.66v-70.64c0-9.75-23.72-17.66-52.98-17.66Z"/>
        <ellipse class="cls-3" cx="327.64" cy="285.48" rx="52.98" ry="17.66"/>
        <path class="cls-12" d="M351.28,269.69c19.21,26.59-42.41,24.47-73.3,21.89,7.46,6.74,26.85,11.56,49.66,11.56,29.26,0,52.98-7.91,52.98-17.66,0-6.92-11.96-12.89-29.34-15.79Z"/>
        <path class="cls-8" d="M279.07,236.91h-26.49c-2.44,0-4.41-1.98-4.41-4.41v-12.16c-.61-.24-1.22-.5-1.83-.77l-8.6,8.6c-1.72,1.72-4.52,1.72-6.24,0,0,0,0,0,0,0l-18.73-18.73c-1.72-1.72-1.72-4.52,0-6.24,0,0,0,0,0,0l8.6-8.6c-.27-.61-.53-1.22-.77-1.83h-12.16c-2.44,0-4.41-1.98-4.41-4.41v-26.49c0-2.44,1.98-4.41,4.41-4.41h12.16c.24-.61.5-1.22.77-1.83l-8.6-8.6c-1.72-1.72-1.72-4.52,0-6.24,0,0,0,0,0,0l18.73-18.73c1.72-1.72,4.52-1.72,6.24,0,0,0,0,0,0,0l8.6,8.6c.61-.27,1.22-.53,1.83-.77v-12.16c0-2.44,1.98-4.41,4.41-4.41h26.49c2.44,0,4.41,1.98,4.41,4.41v12.16c.61.24,1.22.5,1.83.77l8.6-8.6c1.72-1.72,4.52-1.72,6.24,0,0,0,0,0,0,0l18.73,18.73c1.72,1.72,1.72,4.52,0,6.24,0,0,0,0,0,0l-8.6,8.6c.27.61.53,1.22.77,1.83h12.16c2.44,0,4.41,1.98,4.41,4.41v26.49c0,2.44-1.98,4.41-4.41,4.41h-12.16c-.24.61-.5,1.22-.77,1.83l8.6,8.6c1.72,1.72,1.72,4.52,0,6.24,0,0,0,0,0,0l-18.73,18.73c-1.72,1.72-4.52,1.72-6.24,0h0s-8.6-8.6-8.6-8.6c-.61.27-1.22.53-1.83.77v12.16c0,2.44-1.98,4.41-4.41,4.41ZM257,228.08h17.66v-10.86c0-1.93,1.25-3.63,3.09-4.21,2.22-.71,4.37-1.61,6.43-2.69,1.71-.9,3.8-.57,5.17.79l7.7,7.7,12.49-12.49-7.7-7.7c-1.36-1.36-1.69-3.46-.79-5.17,1.09-2.06,1.99-4.21,2.69-6.43.58-1.84,2.28-3.09,4.21-3.09h10.86v-17.66h-10.86c-1.93,0-3.63-1.25-4.21-3.09-.71-2.22-1.61-4.37-2.69-6.43-.89-1.71-.57-3.8.79-5.17l7.7-7.7-12.49-12.49-7.7,7.7c-1.36,1.37-3.46,1.69-5.17.79-2.06-1.09-4.21-1.99-6.43-2.69-1.84-.58-3.09-2.28-3.09-4.21v-10.86h-17.66v10.86c0,1.93-1.25,3.63-3.09,4.21-2.22.71-4.37,1.61-6.43,2.69-1.71.9-3.8.57-5.17-.79l-7.7-7.7-12.49,12.49,7.7,7.7c1.36,1.36,1.69,3.46.79,5.17-1.09,2.06-1.99,4.21-2.69,6.43-.58,1.84-2.28,3.09-4.21,3.09h-10.86v17.66h10.86c1.93,0,3.63,1.25,4.21,3.09.71,2.22,1.61,4.37,2.69,6.43.89,1.71.57,3.8-.79,5.17l-7.7,7.7,12.49,12.49,7.7-7.7c1.36-1.37,3.46-1.69,5.17-.79,2.06,1.09,4.21,1.99,6.43,2.69,1.84.58,3.09,2.28,3.09,4.21v10.86Z"/>
        <path class="cls-8" d="M265.83,206.01c-17.07,0-30.9-13.84-30.9-30.9s13.84-30.9,30.9-30.9,30.9,13.84,30.9,30.9c-.02,17.06-13.84,30.88-30.9,30.9ZM265.83,153.03c-12.19,0-22.07,9.88-22.07,22.07s9.88,22.07,22.07,22.07,22.07-9.88,22.07-22.07c-.01-12.19-9.89-22.06-22.07-22.07Z"/>
        <path class="cls-8" d="M327.64,263.4c-7.39,0-14.76.52-22.07,1.58v-6c0-7.31-5.93-13.24-13.24-13.24h-132.45c-7.31,0-13.24,5.93-13.24,13.24v105.96c0,7.31,5.93,13.24,13.24,13.24h132.45c2.77-.02,5.45-.91,7.69-2.54,9.11,1.72,18.36,2.57,27.63,2.54,28.52,0,57.39-7.58,57.39-22.07v-70.64c0-14.49-28.87-22.07-57.39-22.07ZM155.46,258.99c0-2.44,1.98-4.41,4.41-4.41h132.45c2.44,0,4.41,1.98,4.41,4.41v7.63c-5.22,1.12-10.3,2.85-15.12,5.16-1.54-.72-2.53-2.26-2.54-3.96,0-2.44-1.98-4.41-4.41-4.41h-17.66c-2.44,0-4.41,1.98-4.41,4.41s1.98,4.41,4.41,4.41h14c.65,1.82,1.7,3.47,3.06,4.84-2.34,2.18-3.72,5.21-3.82,8.4v13.24h-13.24c-2.44,0-4.41,1.98-4.41,4.41s1.98,4.41,4.41,4.41h13.24v8.83h-110.37c-2.44,0-4.41-1.98-4.41-4.41v-52.98ZM155.46,324.4c1.41.52,2.91.8,4.41.81h110.37v8.83h-110.37c-2.44,0-4.41-1.98-4.41-4.41v-5.23ZM155.46,342.06c1.41.52,2.91.8,4.41.81h110.37v8.83h-110.37c-2.44,0-4.41-1.98-4.41-4.41v-5.23ZM159.87,369.36c-2.44,0-4.41-1.98-4.41-4.41v-5.23c1.41.52,2.91.8,4.41.81h111.4c2.09,3.89,5.41,7,9.43,8.83h-120.83ZM376.2,356.11c0,4.49-17.14,13.24-48.56,13.24s-48.56-8.75-48.56-13.24v-5.37c10.71,6.45,29.69,9.79,48.56,9.79s37.85-3.34,48.56-9.79v5.37ZM376.2,338.46c0,4.49-17.14,13.24-48.56,13.24s-48.56-8.75-48.56-13.24v-5.37c10.71,6.45,29.69,9.79,48.56,9.79s37.85-3.34,48.56-9.79v5.37ZM376.2,320.8c0,4.49-17.14,13.24-48.56,13.24s-48.56-8.75-48.56-13.24v-5.37c10.71,6.45,29.69,9.79,48.56,9.79s37.85-3.34,48.56-9.79v5.37ZM376.2,303.14c0,4.49-17.14,13.24-48.56,13.24s-48.56-8.75-48.56-13.24v-5.37c10.71,6.45,29.69,9.79,48.56,9.79s37.85-3.34,48.56-9.79v5.37ZM327.64,298.72c-31.42,0-48.56-8.75-48.56-13.24s17.14-13.24,48.56-13.24,48.56,8.75,48.56,13.24-17.14,13.24-48.56,13.24Z"/>
      </g>
    </g>
  </g>
</svg>