<?xml version="1.0" encoding="UTF-8"?>
<svg id="Layer_2" data-name="Layer 2" xmlns="http://www.w3.org/2000/svg" viewBox="0 0 512 512">
  <defs>
    <style>
      .cls-1 {
        fill: #383838;
      }

      .cls-1, .cls-2, .cls-3, .cls-4, .cls-5, .cls-6, .cls-7, .cls-8, .cls-9, .cls-10, .cls-11, .cls-12, .cls-13, .cls-14, .cls-15, .cls-16 {
        stroke-width: 0px;
      }

      .cls-2 {
        fill: #b5e4fa;
      }

      .cls-3 {
        fill: #000;
      }

      .cls-4 {
        fill: #cc2c28;
      }

      .cls-5 {
        fill: #e5dbc7;
      }

      .cls-6 {
        fill: #95c8ec;
      }

      .cls-7 {
        fill: #2d2d2d;
      }

      .cls-8 {
        fill: #434343;
      }

      .cls-9 {
        fill: #111132;
      }

      .cls-10 {
        fill: #545554;
      }

      .cls-11 {
        fill: #eee;
      }

      .cls-12 {
        fill: #e04326;
      }

      .cls-13 {
        fill: #546f7a;
      }

      .cls-14 {
        fill: #455b64;
      }

      .cls-15 {
        fill: #fff;
      }

      .cls-16 {
        fill: #cfd8dc;
      }
    </style>
  </defs>
  <g id="Layer_1-2" data-name="Layer 1">
    <g>
      <path class="cls-8" d="M491.21,504.72H20.71c-7.44,0-13.47-6.03-13.47-13.47V20.75c0-7.44,6.03-13.47,13.47-13.47h470.51c7.44,0,13.47,6.03,13.47,13.47v470.51c0,7.44-6.03,13.47-13.47,13.47Z"/>
      <path class="cls-7" d="M59.76,491.25V20.75c0-7.44,6.03-13.47,13.47-13.47H20.71c-7.44,0-13.47,6.03-13.47,13.47v470.51c0,7.44,6.03,13.47,13.47,13.47h52.52c-7.44,0-13.47-6.03-13.47-13.47Z"/>
      <g>
        <path class="cls-12" d="M495.56,137.71h-216.87c-5.04,0-9.12,4.08-9.12,9.12v87.89c0,5.04,4.08,9.12,9.12,9.12h216.87c5.04,0,9.12-4.08,9.12-9.12v-87.89c0-5.04-4.09-9.12-9.12-9.12Z"/>
        <path class="cls-1" d="M364.4,268.14h-216.87c-5.04,0-9.12,4.08-9.12,9.12v87.89c0,5.04,4.08,9.12,9.12,9.12h216.87c5.04,0,9.12-4.08,9.12-9.12v-87.89c0-5.04-4.08-9.12-9.12-9.12Z"/>
        <path class="cls-12" d="M364.4,7.28h-216.87c-5.04,0-9.12,4.08-9.12,9.12v87.89c0,5.04,4.08,9.12,9.12,9.12h216.87c5.04,0,9.12-4.08,9.12-9.12V16.4c0-5.04-4.08-9.12-9.12-9.12Z"/>
        <path class="cls-12" d="M504.68,104.29V16.4c0-5.04-4.08-9.12-9.12-9.12h-86.78c-5.04,0-9.12,4.08-9.12,9.12v87.89c0,5.04,4.08,9.12,9.12,9.12h86.78c5.04,0,9.12-4.08,9.12-9.12Z"/>
        <path class="cls-12" d="M504.68,365.16v-87.89c0-5.04-4.08-9.12-9.12-9.12h-86.78c-5.04,0-9.12,4.08-9.12,9.12v87.89c0,5.04,4.08,9.12,9.12,9.12h86.78c5.04,0,9.12-4.08,9.12-9.12Z"/>
        <path class="cls-12" d="M112.27,104.29V16.4c0-5.04-4.08-9.12-9.12-9.12H16.37c-5.04,0-9.12,4.08-9.12,9.12v87.89c0,5.04,4.08,9.12,9.12,9.12h86.78c5.04,0,9.12-4.08,9.12-9.12Z"/>
        <path class="cls-12" d="M112.27,365.16v-87.89c0-5.04-4.08-9.12-9.12-9.12H16.37c-5.04,0-9.12,4.08-9.12,9.12v87.89c0,5.04,4.08,9.12,9.12,9.12h86.78c5.04,0,9.12-4.08,9.12-9.12Z"/>
        <path class="cls-12" d="M233.24,137.71H16.37c-5.04,0-9.12,4.08-9.12,9.12v87.89c0,5.04,4.08,9.12,9.12,9.12h216.87c5.04,0,9.12-4.08,9.12-9.12v-87.89c0-5.04-4.09-9.12-9.12-9.12Z"/>
        <path class="cls-12" d="M495.56,398.58h-216.87c-5.04,0-9.12,4.08-9.12,9.12v87.89c0,5.04,4.08,9.12,9.12,9.12h216.87c5.04,0,9.12-4.08,9.12-9.12v-87.89c0-5.04-4.09-9.12-9.12-9.12Z"/>
        <path class="cls-12" d="M233.24,398.58H16.37c-5.04,0-9.12,4.08-9.12,9.12v87.89c0,5.04,4.08,9.12,9.12,9.12h216.87c5.04,0,9.12-4.08,9.12-9.12v-87.89c0-5.04-4.09-9.12-9.12-9.12Z"/>
      </g>
      <g>
        <path class="cls-4" d="M59.76,104.29V16.4c0-5.04,4.08-9.12,9.12-9.12H16.37c-5.04,0-9.12,4.08-9.12,9.12v87.89c0,5.04,4.08,9.12,9.12,9.12h52.51c-5.04,0-9.12-4.08-9.12-9.12Z"/>
        <path class="cls-4" d="M190.92,104.29V16.4c0-5.04,4.08-9.12,9.12-9.12h-52.51c-5.04,0-9.12,4.08-9.12,9.12v87.89c0,5.04,4.08,9.12,9.12,9.12h52.51c-5.04,0-9.12-4.08-9.12-9.12Z"/>
        <path class="cls-4" d="M452.17,104.29V16.4c0-5.04,4.08-9.12,9.12-9.12h-52.51c-5.04,0-9.12,4.08-9.12,9.12v87.89c0,5.04,4.08,9.12,9.12,9.12h52.52c-5.04,0-9.12-4.08-9.12-9.12Z"/>
        <path class="cls-10" d="M322.08,234.72v-87.89c0-5.04,4.08-9.12,9.12-9.12h-52.52c-5.04,0-9.12,4.08-9.12,9.12v87.89c0,5.04,4.08,9.12,9.12,9.12h52.52c-5.04,0-9.12-4.08-9.12-9.12Z"/>
        <path class="cls-4" d="M452.17,365.16v-87.89c0-5.04,4.08-9.12,9.12-9.12h-52.51c-5.04,0-9.12,4.08-9.12,9.12v87.89c0,5.04,4.08,9.12,9.12,9.12h52.52c-5.04,0-9.12-4.09-9.12-9.12Z"/>
        <path class="cls-4" d="M322.08,495.59v-87.89c0-5.04,4.08-9.12,9.12-9.12h-52.52c-5.04,0-9.12,4.08-9.12,9.12v87.89c0,5.04,4.08,9.12,9.12,9.12h52.52c-5.04,0-9.12-4.08-9.12-9.12Z"/>
        <path class="cls-10" d="M190.92,365.16v-87.89c0-5.04,4.08-9.12,9.12-9.12h-52.51c-5.04,0-9.12,4.08-9.12,9.12v87.89c0,5.04,4.08,9.12,9.12,9.12h52.51c-5.04,0-9.12-4.09-9.12-9.12Z"/>
        <path class="cls-4" d="M59.76,365.16v-87.89c0-5.04,4.08-9.12,9.12-9.12H16.37c-5.04,0-9.12,4.08-9.12,9.12v87.89c0,5.04,4.08,9.12,9.12,9.12h52.51c-5.04,0-9.12-4.08-9.12-9.12Z"/>
        <path class="cls-4" d="M59.76,234.72v-87.89c0-5.04,4.08-9.12,9.12-9.12H16.37c-5.04,0-9.12,4.08-9.12,9.12v87.89c0,5.04,4.08,9.12,9.12,9.12h52.51c-5.04,0-9.12-4.08-9.12-9.12Z"/>
        <path class="cls-4" d="M59.76,495.59v-87.89c0-5.04,4.08-9.12,9.12-9.12H16.37c-5.04,0-9.12,4.08-9.12,9.12v87.89c0,5.04,4.08,9.12,9.12,9.12h52.51c-5.04,0-9.12-4.08-9.12-9.12Z"/>
      </g>
      <path class="cls-3" d="M495.38,130.32h-216.68c-9.16,0-16.61,7.45-16.61,16.62v87.81c0,9.16,7.45,16.62,16.61,16.62h216.68c9.16,0,16.61-7.45,16.61-16.62v-87.81c0-9.16-7.45-16.62-16.61-16.62ZM497,234.75c0,.89-.73,1.62-1.61,1.62-227.95-.76-218.29,1.56-218.29-1.62v-87.81c0-.89.73-1.61,1.61-1.61,227.95.76,218.29-1.56,218.29,1.61v87.81Z"/>
      <path class="cls-3" d="M147.66,121.04h216.68c9.16,0,16.61-7.45,16.61-16.61V16.62c0-9.16-7.45-16.62-16.61-16.62h-216.68c-9.16,0-16.62,7.45-16.62,16.62v87.81c0,9.16,7.46,16.61,16.62,16.61ZM146.05,16.62c0-3.18-9.66-.86,218.29-1.61.89,0,1.61.73,1.61,1.61v87.81c0,.89-.73,1.61-1.61,1.61h-216.68c-.89,0-1.62-.72-1.62-1.61V16.62h0Z"/>
      <path class="cls-3" d="M495.38,0h-86.71c-9.16,0-16.61,7.45-16.61,16.62v87.81c0,9.16,7.45,16.61,16.61,16.61h86.71c9.16,0,16.61-7.45,16.61-16.61V16.62c0-9.16-7.45-16.62-16.61-16.62ZM497,104.43c0,.89-.73,1.61-1.61,1.61h-86.71c-.89,0-1.61-.72-1.61-1.61V16.62c0-.89.73-1.61,1.61-1.61h86.71c.89,0,1.61.73,1.61,1.61v87.81Z"/>
      <path class="cls-3" d="M495.38,260.64h-86.71c-9.16,0-16.61,7.45-16.61,16.62v87.81c0,9.16,7.45,16.61,16.61,16.61h86.71c9.16,0,16.61-7.45,16.61-16.61v-87.81c0-9.16-7.45-16.62-16.61-16.62ZM497,365.07c0,.89-.73,1.61-1.61,1.61h-86.71c-.89,0-1.61-.73-1.61-1.61v-87.81c0-.89.73-1.61,1.61-1.61h86.71c.89,0,1.61.73,1.61,1.61v87.81Z"/>
      <path class="cls-3" d="M16.62,381.68h86.71c9.16,0,16.62-7.45,16.62-16.61v-87.81c0-9.16-7.45-16.62-16.62-16.62H16.62c-9.16,0-16.62,7.45-16.62,16.62v87.81c0,9.16,7.45,16.62,16.62,16.62ZM15,277.25c0-.89.73-1.61,1.62-1.61h86.71c.89,0,1.61.73,1.61,1.61v87.81c0,.89-.72,1.61-1.61,1.61H16.62c-.89,0-1.61-.73-1.61-1.61,0,0,0-87.81,0-87.81Z"/>
      <path class="cls-3" d="M16.62,251.36h216.68c9.16,0,16.62-7.45,16.62-16.62v-87.81c0-9.16-7.45-16.62-16.62-16.62H16.62c-9.16,0-16.62,7.45-16.62,16.62v87.81c0,9.16,7.45,16.62,16.62,16.62ZM15,146.93c0-3.18-9.66-.86,218.29-1.61.89,0,1.62.73,1.62,1.61v87.81c0,.89-.73,1.62-1.62,1.62-227.95-.76-218.29,1.56-218.29-1.62,0,0,0-87.81,0-87.81Z"/>
      <path class="cls-3" d="M495.38,390.96h-216.68c-9.16,0-16.61,7.45-16.61,16.61v87.81c0,9.16,7.45,16.62,16.61,16.62h216.68c9.16,0,16.61-7.45,16.61-16.62v-87.81c0-9.16-7.45-16.61-16.61-16.61ZM497,495.38c0,.89-.73,1.61-1.61,1.61-227.95-.76-218.29,1.56-218.29-1.61v-87.81c0-3.18-9.66-.86,218.29-1.61.89,0,1.61.73,1.61,1.61v87.81Z"/>
      <path class="cls-3" d="M233.29,390.96H16.62c-9.16,0-16.62,7.45-16.62,16.62v87.81c0,9.16,7.45,16.62,16.62,16.62h25.85c4.14,0,7.5-3.36,7.5-7.5s-3.36-7.5-7.5-7.5h-25.85c-.89,0-1.61-.73-1.61-1.61v-87.81c0-.89.73-1.61,1.61-1.61,227.95.76,218.29-1.56,218.29,1.61v87.81c0,3.18,4.99.87-157.44,1.61-4.14,0-7.5,3.36-7.5,7.5s3.36,7.5,7.5,7.5h155.82c9.16,0,16.62-7.45,16.62-16.62v-87.81c0-9.16-7.45-16.62-16.61-16.62Z"/>
      <path class="cls-3" d="M300.79,275.64c4.14,0,7.5-3.36,7.5-7.5s-3.36-7.5-7.5-7.5h-153.13c-9.16,0-16.62,7.45-16.62,16.62v87.81c0,9.16,7.45,16.61,16.62,16.61h216.68c9.16,0,16.61-7.45,16.61-16.61v-87.81c0-9.16-7.45-16.62-16.61-16.62h-28.55c-4.14,0-7.5,3.36-7.5,7.5s3.36,7.5,7.5,7.5h28.55c.89,0,1.61.73,1.61,1.61v87.81c0,3.18,9.66.86-218.29,1.61-.89,0-1.62-.73-1.62-1.61v-87.81c0-3.18-4.73-.87,154.74-1.62Z"/>
      <path class="cls-3" d="M16.62,121.04h86.71c9.16,0,16.62-7.45,16.62-16.62V16.62c0-9.16-7.45-16.62-16.62-16.62H16.62C7.45,0,0,7.45,0,16.62v26.41c0,4.14,3.36,7.5,7.5,7.5s7.5-3.36,7.5-7.5v-26.41c0-.89.73-1.61,1.61-1.61h86.71c.89,0,1.61.73,1.61,1.61v87.81c0,.89-.72,1.61-1.61,1.61H16.62c-.89,0-1.61-.72-1.61-1.61v-26.4c0-4.14-3.36-7.5-7.5-7.5s-7.5,3.36-7.5,7.5v26.4c0,9.16,7.45,16.61,16.62,16.61Z"/>
      <circle class="cls-5" cx="265.83" cy="245.74" r="204.53"/>
      <g id="bulldozer">
        <path class="cls-11" d="M378.36,366.96h60.22c0-10.28-5.26-19.85-13.93-25.37,7.84-13.87,3.5-31.44-9.9-40.06,5.46-6.25,4.81-15.74-1.44-21.2-5.96-5.2-14.93-4.89-20.52.71-8.58-10.8-24.29-12.59-35.09-4.01-3.21,2.56-5.75,5.86-7.38,9.63l28.02,80.3Z"/>
        <path class="cls-16" d="M383.64,273.9c-3.23-1.5-6.74-2.28-10.3-2.29-9.98,0-19.01,5.91-23,15.05l28.02,80.3h60.22c0-6.33-2-12.5-5.73-17.62-19.6,2.75-46.38-6.44-49.21-75.44Z"/>
        <path class="cls-12" d="M398.44,366.96h-30.11c-16.63,0-30.11-13.48-30.11-30.11v-80.3l60.22,110.41Z"/>
        <path class="cls-12" d="M352.22,282.22l-14-25.67v80.3c0,16.63,13.48,30.11,30.11,30.11h30.11l-7.28-13.34c-18.63.66-50.62-7.1-38.95-71.4Z"/>
        <path class="cls-12" d="M318.14,321.79h20.07v20.07h-20.07v-20.07Z"/>
        <path class="cls-13" d="M182.64,296.7h100.37c19.4,0,35.13,15.73,35.13,35.13h0c0,19.4-15.73,35.13-35.13,35.13h-100.37c-19.4,0-35.13-15.73-35.13-35.13h0c0-19.4,15.73-35.13,35.13-35.13Z"/>
        <path class="cls-14" d="M162.56,346.89c0-19.4,15.73-35.13,35.13-35.13h100.37c5.62,0,11.15,1.35,16.13,3.94-6.02-11.67-18.06-19-31.19-19h-100.37c-19.39,0-35.12,15.71-35.13,35.1,0,13.14,7.33,25.18,19,31.21-2.59-4.98-3.94-10.51-3.94-16.13h0Z"/>
        <path class="cls-12" d="M182.64,276.63h100.37v20.07h-100.37v-20.07Z"/>
        <circle class="cls-12" cx="182.64" cy="331.83" r="15.06"/>
        <circle class="cls-12" cx="232.82" cy="331.83" r="15.06"/>
        <circle class="cls-12" cx="283.01" cy="331.83" r="15.06"/>
        <rect class="cls-12" x="147.51" y="216.4" width="170.63" height="60.22" rx="10.04" ry="10.04"/>
        <path class="cls-12" d="M195.03,216.4h-37.48c-5.54,0-10.04,4.49-10.04,10.04v40.15c0,5.54,4.49,10.04,10.04,10.04h150.56c5.54,0,10.04-4.49,10.04-10.04v-4.68c-26.8.33-99.73-2.89-123.11-45.51h0Z"/>
        <path class="cls-13" d="M167.58,186.29h20.07v30.11h-20.07v-30.11Z"/>
        <path class="cls-13" d="M202.71,105.99h100.37c5.54,0,10.04,4.49,10.04,10.04h0c0,5.54-4.49,10.04-10.04,10.04h-100.37c-5.54,0-10.04-4.49-10.04-10.04h0c0-5.54,4.49-10.04,10.04-10.04Z"/>
        <path class="cls-12" d="M207.73,126.07h90.34v90.34h-90.34v-90.34Z"/>
        <path class="cls-2" d="M247.88,146.14h50.19v110.41h-50.19v-110.41Z"/>
        <path class="cls-6" d="M262.94,146.14h-15.06v110.41h50.19v-19.91c-17.1-9.11-35.13-32.46-35.13-90.5h0Z"/>
        <path class="cls-2" d="M207.73,146.14h20.07v50.19h-20.07v-50.19Z"/>
        <path class="cls-9" d="M182.64,351.91c-11.09,0-20.07-8.99-20.07-20.07s8.99-20.07,20.07-20.07,20.07,8.99,20.07,20.07c-.01,11.08-8.99,20.06-20.07,20.07ZM182.64,321.79c-5.54,0-10.04,4.49-10.04,10.04s4.49,10.04,10.04,10.04,10.04-4.49,10.04-10.04c0-5.54-4.5-10.03-10.04-10.04Z"/>
        <path class="cls-9" d="M232.82,351.91c-11.09,0-20.07-8.99-20.07-20.07s8.99-20.07,20.07-20.07,20.07,8.99,20.07,20.07c-.01,11.08-8.99,20.06-20.07,20.07ZM232.82,321.79c-5.54,0-10.04,4.49-10.04,10.04s4.49,10.04,10.04,10.04,10.04-4.49,10.04-10.04c0-5.54-4.5-10.03-10.04-10.04Z"/>
        <path class="cls-9" d="M283.01,351.91c-11.09,0-20.07-8.99-20.07-20.07s8.99-20.07,20.07-20.07,20.07,8.99,20.07,20.07c-.01,11.08-8.99,20.06-20.07,20.07ZM283.01,321.79c-5.54,0-10.04,4.49-10.04,10.04s4.49,10.04,10.04,10.04,10.04-4.49,10.04-10.04c0-5.54-4.5-10.03-10.04-10.04Z"/>
        <path class="cls-9" d="M430.98,340.01c5.65-13.88,1.85-29.83-9.46-39.66,1.32-2.7,2.01-5.66,2.01-8.67,0-11.09-9.01-20.08-20.1-20.07-3.54,0-7.02.94-10.08,2.72-11.28-10.23-28.45-10.33-39.84-.22l-10.89-19.96c-1.33-2.43-4.38-3.33-6.81-2-1.61.88-2.61,2.57-2.61,4.4v60.22h-12.99c-5.48-13.44-17.78-22.88-32.17-24.71v-10.42h20.07c8.31,0,15.05-6.74,15.06-15.06v-40.15c0-8.31-6.74-15.05-15.06-15.06h-5.02v-80.3c8.32,0,15.06-6.74,15.06-15.06s-6.74-15.06-15.06-15.06h-100.37c-8.32,0-15.06,6.74-15.06,15.06s6.74,15.06,15.06,15.06v80.3h-10.04v-25.09c0-2.77-2.25-5.02-5.02-5.02h-5.02v-10.04c0-1.68-.84-3.25-2.23-4.18l-15.06-10.04c-2.32-1.51-5.43-.86-6.95,1.46-1.49,2.29-.88,5.35,1.38,6.89l12.82,8.55v7.35h-5.02c-2.77,0-5.02,2.25-5.02,5.02h0v25.1h-5.02c-8.31,0-15.05,6.74-15.06,15.06v40.15c0,8.31,6.74,15.05,15.06,15.06h20.07v10.39c-21.99,2.76-37.58,22.83-34.82,44.82,2.52,20.08,19.6,35.14,39.84,35.13h100.37c16.35-.02,31.05-9.94,37.19-25.09h14.47c4.45,14.87,18.13,25.07,33.65,25.09h70.26c2.77,0,5.02-2.25,5.02-5.02h0c.02-10.42-4.61-20.3-12.62-26.95h0ZM197.69,116.03c0-2.77,2.25-5.02,5.02-5.02h100.37c2.77,0,5.02,2.25,5.02,5.02s-2.25,5.02-5.02,5.02h-100.37c-2.77,0-5.02-2.25-5.02-5.02ZM293.05,131.09v10.04h-45.17c-2.77,0-5.02,2.25-5.02,5.02h0v65.24h-30.11v-10.04h15.06c2.77,0,5.02-2.25,5.02-5.02h0v-50.19c0-2.77-2.25-5.02-5.02-5.02h-15.06v-10.04h80.3ZM293.05,151.16v100.37h-40.15v-100.37h40.15ZM212.75,191.31v-40.15h10.04v40.15h-10.04ZM172.6,191.31h10.04v20.07h-10.04v-20.07ZM157.54,271.61c-2.77,0-5.02-2.25-5.02-5.02v-5.02h15.06c2.77,0,5.02-2.25,5.02-5.02s-2.25-5.02-5.02-5.02h-15.06v-10.04h15.06c2.77,0,5.02-2.25,5.02-5.02s-2.25-5.02-5.02-5.02h-15.06v-5.02c0-2.77,2.25-5.02,5.02-5.02h85.32v35.13c0,2.77,2.25,5.02,5.02,5.02h50.19c2.77,0,5.02-2.25,5.02-5.02h0v-35.13h5.02c2.77,0,5.02,2.25,5.02,5.02v40.15c0,2.77-2.25,5.02-5.02,5.02h-150.56ZM277.99,281.65v10.04h-90.34v-10.04h90.34ZM283.01,361.94h-100.37c-16.63,0-30.11-13.48-30.11-30.11s13.48-30.11,30.11-30.11h100.37c16.63,0,30.11,13.48,30.11,30.11s-13.48,30.11-30.11,30.11ZM333.2,336.85h-10.39c.46-3.33.46-6.71,0-10.04h10.39v10.04ZM368.33,361.94c-13.85-.02-25.08-11.24-25.09-25.09v-60.62l46.75,85.71h-21.66ZM401.42,361.94l-42.93-78.7c7.32-8.18,19.88-8.87,28.06-1.55.85.76,1.64,1.6,2.35,2.5,1.74,2.16,4.9,2.49,7.05.75.14-.11.27-.23.4-.36,3.87-3.94,10.21-3.99,14.15-.12,3.79,3.73,4,9.78.48,13.76-1.82,2.09-1.61,5.26.48,7.08.18.16.37.3.58.44,11.17,7.18,14.79,21.82,8.25,33.38-1.31,2.32-.58,5.26,1.67,6.7,5.74,3.64,9.75,9.46,11.11,16.12h-31.65Z"/>
        <g>
          <circle class="cls-15" cx="187.66" cy="256.55" r="5.02"/>
          <circle class="cls-15" cx="207.73" cy="256.55" r="5.02"/>
          <circle class="cls-15" cx="227.81" cy="256.55" r="5.02"/>
          <circle class="cls-15" cx="277.99" cy="211.38" r="5.02"/>
          <path class="cls-15" d="M277.99,196.33c-2.77,0-5.02-2.25-5.02-5.02h0v-25.1c0-2.77,2.25-5.02,5.02-5.02s5.02,2.25,5.02,5.02v25.09c0,2.77-2.25,5.02-5.02,5.02h0Z"/>
          <path class="cls-15" d="M404.64,341.87c-2.77,0-5.02-2.24-5.02-5.01,0-1.24.46-2.43,1.28-3.35,3.4-3.81,3.4-9.57,0-13.38-1.85-2.07-1.67-5.24.39-7.08,2.07-1.85,5.24-1.67,7.08.39h0c6.82,7.62,6.82,19.14,0,26.76-.95,1.07-2.31,1.68-3.74,1.67h0Z"/>
        </g>
      </g>
    </g>
  </g>
</svg>