<?xml version="1.0" encoding="UTF-8"?>
<svg id="Layer_2" data-name="Layer 2" xmlns="http://www.w3.org/2000/svg" viewBox="0 0 512 512">
  <defs>
    <style>
      .cls-1 {
        fill: #383838;
      }

      .cls-1, .cls-2, .cls-3, .cls-4, .cls-5, .cls-6, .cls-7, .cls-8, .cls-9 {
        stroke-width: 0px;
      }

      .cls-2 {
        fill: #000;
      }

      .cls-3 {
        fill: #cc2c28;
      }

      .cls-4 {
        fill: #e5dbc7;
      }

      .cls-5 {
        fill: #2d2d2d;
      }

      .cls-6 {
        fill: #434343;
      }

      .cls-7 {
        fill: #545554;
      }

      .cls-8 {
        fill: #e04326;
      }

      .cls-9 {
        fill: #ababab;
      }
    </style>
  </defs>
  <g id="Layer_1-2" data-name="Layer 1">
    <g>
      <path class="cls-6" d="M491.21,504.72H20.71c-7.44,0-13.47-6.03-13.47-13.47V20.75c0-7.44,6.03-13.47,13.47-13.47h470.51c7.44,0,13.47,6.03,13.47,13.47v470.51c0,7.44-6.03,13.47-13.47,13.47Z"/>
      <path class="cls-5" d="M59.76,491.25V20.75c0-7.44,6.03-13.47,13.47-13.47H20.71c-7.44,0-13.47,6.03-13.47,13.47v470.51c0,7.44,6.03,13.47,13.47,13.47h52.52c-7.44,0-13.47-6.03-13.47-13.47Z"/>
      <g>
        <path class="cls-8" d="M495.56,137.71h-216.87c-5.04,0-9.12,4.08-9.12,9.12v87.89c0,5.04,4.08,9.12,9.12,9.12h216.87c5.04,0,9.12-4.08,9.12-9.12v-87.89c0-5.04-4.09-9.12-9.12-9.12Z"/>
        <path class="cls-1" d="M364.4,268.14h-216.87c-5.04,0-9.12,4.08-9.12,9.12v87.89c0,5.04,4.08,9.12,9.12,9.12h216.87c5.04,0,9.12-4.08,9.12-9.12v-87.89c0-5.04-4.08-9.12-9.12-9.12Z"/>
        <path class="cls-8" d="M364.4,7.28h-216.87c-5.04,0-9.12,4.08-9.12,9.12v87.89c0,5.04,4.08,9.12,9.12,9.12h216.87c5.04,0,9.12-4.08,9.12-9.12V16.4c0-5.04-4.08-9.12-9.12-9.12Z"/>
        <path class="cls-8" d="M504.68,104.29V16.4c0-5.04-4.08-9.12-9.12-9.12h-86.78c-5.04,0-9.12,4.08-9.12,9.12v87.89c0,5.04,4.08,9.12,9.12,9.12h86.78c5.04,0,9.12-4.08,9.12-9.12Z"/>
        <path class="cls-8" d="M504.68,365.16v-87.89c0-5.04-4.08-9.12-9.12-9.12h-86.78c-5.04,0-9.12,4.08-9.12,9.12v87.89c0,5.04,4.08,9.12,9.12,9.12h86.78c5.04,0,9.12-4.08,9.12-9.12Z"/>
        <path class="cls-8" d="M112.27,104.29V16.4c0-5.04-4.08-9.12-9.12-9.12H16.37c-5.04,0-9.12,4.08-9.12,9.12v87.89c0,5.04,4.08,9.12,9.12,9.12h86.78c5.04,0,9.12-4.08,9.12-9.12Z"/>
        <path class="cls-8" d="M112.27,365.16v-87.89c0-5.04-4.08-9.12-9.12-9.12H16.37c-5.04,0-9.12,4.08-9.12,9.12v87.89c0,5.04,4.08,9.12,9.12,9.12h86.78c5.04,0,9.12-4.08,9.12-9.12Z"/>
        <path class="cls-8" d="M233.24,137.71H16.37c-5.04,0-9.12,4.08-9.12,9.12v87.89c0,5.04,4.08,9.12,9.12,9.12h216.87c5.04,0,9.12-4.08,9.12-9.12v-87.89c0-5.04-4.09-9.12-9.12-9.12Z"/>
        <path class="cls-8" d="M495.56,398.58h-216.87c-5.04,0-9.12,4.08-9.12,9.12v87.89c0,5.04,4.08,9.12,9.12,9.12h216.87c5.04,0,9.12-4.08,9.12-9.12v-87.89c0-5.04-4.09-9.12-9.12-9.12Z"/>
        <path class="cls-8" d="M233.24,398.58H16.37c-5.04,0-9.12,4.08-9.12,9.12v87.89c0,5.04,4.08,9.12,9.12,9.12h216.87c5.04,0,9.12-4.08,9.12-9.12v-87.89c0-5.04-4.09-9.12-9.12-9.12Z"/>
      </g>
      <g>
        <path class="cls-3" d="M59.76,104.29V16.4c0-5.04,4.08-9.12,9.12-9.12H16.37c-5.04,0-9.12,4.08-9.12,9.12v87.89c0,5.04,4.08,9.12,9.12,9.12h52.51c-5.04,0-9.12-4.08-9.12-9.12Z"/>
        <path class="cls-3" d="M190.92,104.29V16.4c0-5.04,4.08-9.12,9.12-9.12h-52.51c-5.04,0-9.12,4.08-9.12,9.12v87.89c0,5.04,4.08,9.12,9.12,9.12h52.51c-5.04,0-9.12-4.08-9.12-9.12Z"/>
        <path class="cls-3" d="M452.17,104.29V16.4c0-5.04,4.08-9.12,9.12-9.12h-52.51c-5.04,0-9.12,4.08-9.12,9.12v87.89c0,5.04,4.08,9.12,9.12,9.12h52.52c-5.04,0-9.12-4.08-9.12-9.12Z"/>
        <path class="cls-7" d="M322.08,234.72v-87.89c0-5.04,4.08-9.12,9.12-9.12h-52.52c-5.04,0-9.12,4.08-9.12,9.12v87.89c0,5.04,4.08,9.12,9.12,9.12h52.52c-5.04,0-9.12-4.08-9.12-9.12Z"/>
        <path class="cls-3" d="M452.17,365.16v-87.89c0-5.04,4.08-9.12,9.12-9.12h-52.51c-5.04,0-9.12,4.08-9.12,9.12v87.89c0,5.04,4.08,9.12,9.12,9.12h52.52c-5.04,0-9.12-4.09-9.12-9.12Z"/>
        <path class="cls-3" d="M322.08,495.59v-87.89c0-5.04,4.08-9.12,9.12-9.12h-52.52c-5.04,0-9.12,4.08-9.12,9.12v87.89c0,5.04,4.08,9.12,9.12,9.12h52.52c-5.04,0-9.12-4.08-9.12-9.12Z"/>
        <path class="cls-7" d="M190.92,365.16v-87.89c0-5.04,4.08-9.12,9.12-9.12h-52.51c-5.04,0-9.12,4.08-9.12,9.12v87.89c0,5.04,4.08,9.12,9.12,9.12h52.51c-5.04,0-9.12-4.09-9.12-9.12Z"/>
        <path class="cls-3" d="M59.76,365.16v-87.89c0-5.04,4.08-9.12,9.12-9.12H16.37c-5.04,0-9.12,4.08-9.12,9.12v87.89c0,5.04,4.08,9.12,9.12,9.12h52.51c-5.04,0-9.12-4.08-9.12-9.12Z"/>
        <path class="cls-3" d="M59.76,234.72v-87.89c0-5.04,4.08-9.12,9.12-9.12H16.37c-5.04,0-9.12,4.08-9.12,9.12v87.89c0,5.04,4.08,9.12,9.12,9.12h52.51c-5.04,0-9.12-4.08-9.12-9.12Z"/>
        <path class="cls-3" d="M59.76,495.59v-87.89c0-5.04,4.08-9.12,9.12-9.12H16.37c-5.04,0-9.12,4.08-9.12,9.12v87.89c0,5.04,4.08,9.12,9.12,9.12h52.51c-5.04,0-9.12-4.08-9.12-9.12Z"/>
      </g>
      <path class="cls-2" d="M495.38,130.32h-216.68c-9.16,0-16.61,7.45-16.61,16.62v87.81c0,9.16,7.45,16.62,16.61,16.62h216.68c9.16,0,16.61-7.45,16.61-16.62v-87.81c0-9.16-7.45-16.62-16.61-16.62ZM497,234.75c0,.89-.73,1.62-1.61,1.62-227.95-.76-218.29,1.56-218.29-1.62v-87.81c0-.89.73-1.61,1.61-1.61,227.95.76,218.29-1.56,218.29,1.61v87.81Z"/>
      <path class="cls-2" d="M147.66,121.04h216.68c9.16,0,16.61-7.45,16.61-16.61V16.62c0-9.16-7.45-16.62-16.61-16.62h-216.68c-9.16,0-16.62,7.45-16.62,16.62v87.81c0,9.16,7.46,16.61,16.62,16.61ZM146.05,16.62c0-3.18-9.66-.86,218.29-1.61.89,0,1.61.73,1.61,1.61v87.81c0,.89-.73,1.61-1.61,1.61h-216.68c-.89,0-1.62-.72-1.62-1.61V16.62h0Z"/>
      <path class="cls-2" d="M495.38,0h-86.71c-9.16,0-16.61,7.45-16.61,16.62v87.81c0,9.16,7.45,16.61,16.61,16.61h86.71c9.16,0,16.61-7.45,16.61-16.61V16.62c0-9.16-7.45-16.62-16.61-16.62ZM497,104.43c0,.89-.73,1.61-1.61,1.61h-86.71c-.89,0-1.61-.72-1.61-1.61V16.62c0-.89.73-1.61,1.61-1.61h86.71c.89,0,1.61.73,1.61,1.61v87.81Z"/>
      <path class="cls-2" d="M495.38,260.64h-86.71c-9.16,0-16.61,7.45-16.61,16.62v87.81c0,9.16,7.45,16.61,16.61,16.61h86.71c9.16,0,16.61-7.45,16.61-16.61v-87.81c0-9.16-7.45-16.62-16.61-16.62ZM497,365.07c0,.89-.73,1.61-1.61,1.61h-86.71c-.89,0-1.61-.73-1.61-1.61v-87.81c0-.89.73-1.61,1.61-1.61h86.71c.89,0,1.61.73,1.61,1.61v87.81Z"/>
      <path class="cls-2" d="M16.62,381.68h86.71c9.16,0,16.62-7.45,16.62-16.61v-87.81c0-9.16-7.45-16.62-16.62-16.62H16.62c-9.16,0-16.62,7.45-16.62,16.62v87.81c0,9.16,7.45,16.62,16.62,16.62ZM15,277.25c0-.89.73-1.61,1.62-1.61h86.71c.89,0,1.61.73,1.61,1.61v87.81c0,.89-.72,1.61-1.61,1.61H16.62c-.89,0-1.61-.73-1.61-1.61,0,0,0-87.81,0-87.81Z"/>
      <path class="cls-2" d="M16.62,251.36h216.68c9.16,0,16.62-7.45,16.62-16.62v-87.81c0-9.16-7.45-16.62-16.62-16.62H16.62c-9.16,0-16.62,7.45-16.62,16.62v87.81c0,9.16,7.45,16.62,16.62,16.62ZM15,146.93c0-3.18-9.66-.86,218.29-1.61.89,0,1.62.73,1.62,1.61v87.81c0,.89-.73,1.62-1.62,1.62-227.95-.76-218.29,1.56-218.29-1.62,0,0,0-87.81,0-87.81Z"/>
      <path class="cls-2" d="M495.38,390.96h-216.68c-9.16,0-16.61,7.45-16.61,16.61v87.81c0,9.16,7.45,16.62,16.61,16.62h216.68c9.16,0,16.61-7.45,16.61-16.62v-87.81c0-9.16-7.45-16.61-16.61-16.61ZM497,495.38c0,.89-.73,1.61-1.61,1.61-227.95-.76-218.29,1.56-218.29-1.61v-87.81c0-3.18-9.66-.86,218.29-1.61.89,0,1.61.73,1.61,1.61v87.81Z"/>
      <path class="cls-2" d="M233.29,390.96H16.62c-9.16,0-16.62,7.45-16.62,16.62v87.81c0,9.16,7.45,16.62,16.62,16.62h25.85c4.14,0,7.5-3.36,7.5-7.5s-3.36-7.5-7.5-7.5h-25.85c-.89,0-1.61-.73-1.61-1.61v-87.81c0-.89.73-1.61,1.61-1.61,227.95.76,218.29-1.56,218.29,1.61v87.81c0,3.18,4.99.87-157.44,1.61-4.14,0-7.5,3.36-7.5,7.5s3.36,7.5,7.5,7.5h155.82c9.16,0,16.62-7.45,16.62-16.62v-87.81c0-9.16-7.45-16.62-16.61-16.62Z"/>
      <path class="cls-2" d="M300.79,275.64c4.14,0,7.5-3.36,7.5-7.5s-3.36-7.5-7.5-7.5h-153.13c-9.16,0-16.62,7.45-16.62,16.62v87.81c0,9.16,7.45,16.61,16.62,16.61h216.68c9.16,0,16.61-7.45,16.61-16.61v-87.81c0-9.16-7.45-16.62-16.61-16.62h-28.55c-4.14,0-7.5,3.36-7.5,7.5s3.36,7.5,7.5,7.5h28.55c.89,0,1.61.73,1.61,1.61v87.81c0,3.18,9.66.86-218.29,1.61-.89,0-1.62-.73-1.62-1.61v-87.81c0-3.18-4.73-.87,154.74-1.62Z"/>
      <path class="cls-2" d="M16.62,121.04h86.71c9.16,0,16.62-7.45,16.62-16.62V16.62c0-9.16-7.45-16.62-16.62-16.62H16.62C7.45,0,0,7.45,0,16.62v26.41c0,4.14,3.36,7.5,7.5,7.5s7.5-3.36,7.5-7.5v-26.41c0-.89.73-1.61,1.61-1.61h86.71c.89,0,1.61.73,1.61,1.61v87.81c0,.89-.72,1.61-1.61,1.61H16.62c-.89,0-1.61-.72-1.61-1.61v-26.4c0-4.14-3.36-7.5-7.5-7.5s-7.5,3.36-7.5,7.5v26.4c0,9.16,7.45,16.61,16.62,16.61Z"/>
      <circle class="cls-4" cx="262.09" cy="260.94" r="204.53"/>
      <g id="computer">
        <path class="cls-9" d="M365.42,127.22v30.39c0,53.71-43.54,97.25-97.25,97.25H116.21v79.02h291.76V127.22h-42.55Z"/>
        <path class="cls-8" d="M116.21,297.41h291.76v36.47H116.21v-36.47Z"/>
        <path class="cls-8" d="M195.23,370.35h133.72v24.31h-133.72v-24.31Z"/>
        <path class="cls-8" d="M249.93,333.88h24.31v36.47h-24.31v-36.47Z"/>
        <g>
          <path class="cls-2" d="M407.97,121.14H116.21c-3.36,0-6.08,2.72-6.08,6.08h0v206.67c0,3.36,2.72,6.08,6.08,6.08h127.65v24.31h-48.63c-3.36,0-6.08,2.72-6.08,6.08h0v24.32c0,3.36,2.72,6.08,6.08,6.08h133.73c3.36,0,6.08-2.72,6.08-6.08h0v-24.32c0-3.36-2.72-6.08-6.08-6.08h-48.63v-24.31h127.65c3.36,0,6.08-2.72,6.08-6.08h0V127.22c0-3.36-2.72-6.08-6.08-6.08h0ZM401.89,133.29v158.04H122.29v-158.04h279.6ZM322.87,388.58h-121.57v-12.16h121.57v12.16ZM268.17,364.27h-12.16v-24.31h12.16v24.31ZM122.29,327.8v-24.31h279.6v24.31H122.29Z"/>
          <path class="cls-8" d="M140.52,175.84c3.36,0,6.08-2.72,6.08-6.08h0v-12.16h42.55c3.36,0,6.08-2.72,6.08-6.08s-2.72-6.08-6.08-6.08h-48.63c-3.36,0-6.08,2.72-6.08,6.08h0v18.24c0,3.36,2.72,6.08,6.08,6.08h0Z"/>
          <circle class="cls-8" cx="140.52" cy="194.08" r="6.08"/>
          <circle class="cls-8" cx="383.66" cy="273.1" r="6.08"/>
          <circle class="cls-8" cx="359.34" cy="273.1" r="6.08"/>
          <circle class="cls-8" cx="335.03" cy="273.1" r="6.08"/>
        </g>
      </g>
    </g>
  </g>
</svg>