<svg id="Capa_1" enable-background="new 0 0 512 512" height="512" viewBox="0 0 512 512" width="512" xmlns="http://www.w3.org/2000/svg"><g><g><path d="m251.849 12.786-153.895 56.013c-2.681.976-4.933 2.865-6.36 5.336l-81.885 141.831c-1.427 2.471-1.937 5.366-1.442 8.176l28.439 161.283c.495 2.81 1.965 5.356 4.151 7.19l125.456 105.27c2.186 1.834 4.948 2.839 7.801 2.839h163.771c2.853 0 5.616-1.005 7.801-2.839l125.456-105.27c2.186-1.834 3.656-4.38 4.151-7.19l28.439-161.283c.495-2.81-.015-5.705-1.442-8.176l-81.886-141.83c-1.427-2.471-3.678-4.361-6.36-5.336l-153.893-56.014c-2.681-.976-5.621-.976-8.302 0z" fill="#ffab56"/><path d="m502.291 215.966-81.886-141.83c-1.427-2.471-3.678-4.361-6.36-5.336l-153.894-56.014c-2.681-.976-5.621-.976-8.302 0l-30.36 11.05 142.768 51.963c2.681.976 4.933 2.865 6.36 5.336l81.886 141.83c1.427 2.471 1.937 5.366 1.442 8.176l-28.439 161.283c-.495 2.81-1.965 5.356-4.151 7.19l-120.498 101.11h37.029c2.853 0 5.615-1.005 7.801-2.84l125.456-105.27c2.186-1.834 3.656-4.38 4.151-7.19l28.439-161.283c.495-2.809-.015-5.704-1.442-8.175z" fill="#ff982a"/></g><g><path d="m510.995 216.041-86.303-149.481c-.882-1.527-2.273-2.694-3.93-3.298l-162.197-59.034c-1.656-.604-3.474-.604-5.13 0l-109.254 39.764c-3.893 1.417-5.899 5.721-4.483 9.613 1.417 3.891 5.719 5.895 9.613 4.482l106.689-38.83 157.067 57.167 83.572 144.753-29.024 164.608-34.21 28.705c-3.173 2.662-3.587 7.393-.924 10.566 2.671 3.182 7.402 3.578 10.566.924l36.301-30.46c1.351-1.133 2.259-2.706 2.564-4.442l29.973-169.984c.307-1.737-.008-3.526-.89-5.053z"/><path d="m411.135 433.177-71.562 60.048h-167.147l-128.041-107.44-29.025-164.608 83.574-144.753 23.109-8.411c3.893-1.417 5.899-5.721 4.483-9.613-1.417-3.892-5.722-5.898-9.613-4.482l-25.675 9.345c-1.657.604-3.049 1.771-3.93 3.298l-86.303 149.48c-.882 1.527-1.197 3.315-.891 5.053l29.973 169.984c.306 1.736 1.215 3.31 2.565 4.442l132.224 110.95c1.351 1.134 3.058 1.755 4.821 1.755h172.606c1.764 0 3.47-.621 4.821-1.755l73.653-61.803c3.173-2.662 3.587-7.393.924-10.566-2.661-3.172-7.392-3.586-10.566-.924z"/></g></g></svg>